<svg xmlns="http://www.w3.org/2000/svg" width="139" height="81.758" viewBox="0 0 139 81.758">
  <g id="main_nodata" transform="translate(-105 -476.089)">
    <rect id="사각형_610" data-name="사각형 610" width="44" height="74" rx="16" transform="translate(105 476.089)" fill="#fea4a4"/>
    <rect id="사각형_611" data-name="사각형 611" width="43" height="74" rx="16" transform="translate(153 476.089)" fill="#87c3e2"/>
    <rect id="사각형_612" data-name="사각형 612" width="44" height="74" rx="16" transform="translate(200 476.089)" fill="#77d9a5"/>
    <path id="패스_4780" data-name="패스 4780" d="M1289.886,2585.88a1.807,1.807,0,0,0-1.608,1.954v14.07h-4.925v-14.07a1.639,1.639,0,1,0-3.217,0v14.07h-4.928v-14.07a1.639,1.639,0,1,0-3.217,0v18.939c0,5.886,3.552,10.77,8.186,11.683-.007.044-.027.08-.032.123-.326,3.26-3.183,31.914-3.183,34.1,0,3.205,2.144,5.811,4.78,5.811s4.782-2.606,4.782-5.811c0-2.183-2.86-30.838-3.186-34.1,0-.044-.025-.079-.032-.122,4.635-.914,8.189-5.8,8.189-11.684v-18.939A1.807,1.807,0,0,0,1289.886,2585.88Z" transform="translate(-1153.637 -2102.216)" fill="#f8f8f8"/>
    <path id="패스_4781" data-name="패스 4781" d="M1379.274,2594.975c-2.244-4.614-5.592-6.959-9.954-6.962h-.009c-4.36,0-7.711,2.346-9.96,6.971l-.107.217v0c-3.751,7.382-3.754,9.847-3.754,11.034a14.035,14.035,0,0,0,11.919,13.67c-.006.038-.03.07-.035.11-.4,3.26-3.869,31.914-3.869,34.1a5.809,5.809,0,1,0,11.618,0c0-2.183-3.473-30.837-3.87-34.1,0-.04-.027-.072-.035-.11a14.035,14.035,0,0,0,11.92-13.669c0-1.186,0-3.655-3.755-11.038Z" transform="translate(-1147.203 -2104.023)" fill="#f8f8f8"/>
    <path id="패스_4782" data-name="패스 4782" d="M1453.965,2576.185a1.954,1.954,0,0,0-1.954,1.954v31.993a1.474,1.474,0,0,1,0,1.956c-.4,3.26-3.868,31.914-3.868,34.1a5.809,5.809,0,1,0,11.619,0c0-2.185-3.475-30.839-3.871-34.1-.008-.064-.042-.116-.056-.178a12.991,12.991,0,0,0,8.176-5.291,20.861,20.861,0,0,0,3.905-12.484C1467.916,2584.237,1461.657,2576.185,1453.965,2576.185Z" transform="translate(-1282.4 -2094.149)" fill="#f8f8f8"/>
  </g>
</svg>
