<svg id="woman" xmlns="http://www.w3.org/2000/svg" width="26.993" height="31.156" viewBox="0 0 26.993 31.156">
  <defs>
    <style>
      .cls-1 {
        fill: #3e3a39;
      }

      .cls-2 {
        fill: #ff5959;
      }
    </style>
  </defs>
  <path id="패스_4261" data-name="패스 4261" class="cls-1" d="M713.776,252.627a.708.708,0,0,1-.468-.176,3.96,3.96,0,0,1-.906-3.972,3.538,3.538,0,0,1,1.1-3.852,2.962,2.962,0,0,0,.555-2.227.711.711,0,0,1,1.4-.226,5.053,5.053,0,0,1,.02,1.213,3.623,3.623,0,0,1-.973,2.244,2.712,2.712,0,0,0-.795,1.168,3.027,3.027,0,0,0,.11,1.516.694.694,0,0,1-.015.407,3.945,3.945,0,0,0-.166,1.075,1.971,1.971,0,0,0,.6,1.584.711.711,0,0,1-.468,1.245Z" transform="translate(-709.393 -229.061)"/>
  <path id="패스_4262" data-name="패스 4262" class="cls-1" d="M782.768,253.5a.711.711,0,0,1-.468-1.245,1.986,1.986,0,0,0,.6-1.619,3.906,3.906,0,0,0-.165-1.039.71.71,0,0,1-.016-.408,3.028,3.028,0,0,0,.11-1.516,2.714,2.714,0,0,0-.795-1.168,3.623,3.623,0,0,1-.973-2.244,5.061,5.061,0,0,1,.02-1.214l1.4.226v0a2.954,2.954,0,0,0,.555,2.229,3.539,3.539,0,0,1,1.1,3.852,3.96,3.96,0,0,1-.906,3.972A.708.708,0,0,1,782.768,253.5Z" transform="translate(-760.157 -229.935)"/>
  <path id="패스_4263" data-name="패스 4263" class="cls-1" d="M724.869,265.13a.711.711,0,0,1-.25-1.376,11.006,11.006,0,0,0,2.738-1.442v-2.181a.711.711,0,1,1,1.421,0v2.518a.711.711,0,0,1-.226.52,10.96,10.96,0,0,1-3.435,1.916A.709.709,0,0,1,724.869,265.13Z" transform="translate(-718.198 -242.225)"/>
  <path id="패스_4264" data-name="패스 4264" class="cls-1" d="M767.922,265.13a.708.708,0,0,1-.249-.046,10.955,10.955,0,0,1-3.435-1.916.711.711,0,0,1-.226-.519v-2.518a.711.711,0,0,1,1.421,0v2.181a11,11,0,0,0,2.738,1.442.711.711,0,0,1-.25,1.376Z" transform="translate(-747.6 -242.225)"/>
  <path id="패스_4265" data-name="패스 4265" class="cls-1" d="M730.516,209.061a.711.711,0,0,1,.548.258,11.286,11.286,0,0,0,2.031,1.753,16.43,16.43,0,0,0,2.572,1.463,18.348,18.348,0,0,0,3.644,1.215.711.711,0,0,1,.556.694V217.6a7.185,7.185,0,1,1-14.37,0v-3.153a.711.711,0,0,1,.442-.658,7.42,7.42,0,0,0,1.6-1,6.879,6.879,0,0,0,2.3-3.234.711.711,0,0,1,.675-.489Zm7.929,5.945a19.62,19.62,0,0,1-3.409-1.2,17.812,17.812,0,0,1-2.807-1.609,15.047,15.047,0,0,1-1.463-1.168,8.094,8.094,0,0,1-.823,1.32,9.024,9.024,0,0,1-1.552,1.573,9.455,9.455,0,0,1-1.473.965V217.6a5.764,5.764,0,1,0,11.527,0Z" transform="translate(-719.185 -205.073)"/>
  <path id="패스_4266" data-name="패스 4266" class="cls-1" d="M720.653,235.853a2.291,2.291,0,0,1,0-4.581.711.711,0,1,1,0,1.421.869.869,0,0,0,0,1.739.711.711,0,1,1,0,1.421Z" transform="translate(-713.922 -221.459)"/>
  <path id="패스_4267" data-name="패스 4267" class="cls-1" d="M776.693,235.853a.711.711,0,0,1,0-1.421.869.869,0,1,0,0-1.739.711.711,0,0,1,0-1.421,2.291,2.291,0,1,1,0,4.581Z" transform="translate(-756.431 -221.459)"/>
  <path id="패스_4268" data-name="패스 4268" class="cls-1" d="M740.979,233c0,.556-.33,1.007-.737,1.007s-.737-.451-.737-1.007.33-1.007.737-1.007S740.979,232.444,740.979,233Z" transform="translate(-729.268 -221.739)"/>
  <path id="패스_4269" data-name="패스 4269" class="cls-1" d="M760.217,233c0,.556-.33,1.007-.737,1.007s-.737-.451-.737-1.007.33-1.007.737-1.007S760.217,232.444,760.217,233Z" transform="translate(-743.461 -221.739)"/>
  <path id="패스_4270" data-name="패스 4270" class="cls-1" d="M745.961,249.464a3.17,3.17,0,0,1-2.256-.935.711.711,0,0,1,1.005-1,1.77,1.77,0,0,0,2.5,0,.711.711,0,0,1,1.005,1.005A3.17,3.17,0,0,1,745.961,249.464Z" transform="translate(-732.465 -233.295)"/>
  <path id="패스_4271" data-name="패스 4271" class="cls-1" d="M736.177,205.574a.711.711,0,0,1-.711-.711V202.68a7.407,7.407,0,1,0-14.813,0v2.183a.711.711,0,1,1-1.421,0V202.68a8.828,8.828,0,1,1,17.656,0v2.183A.711.711,0,0,1,736.177,205.574Z" transform="translate(-714.563 -193.852)"/>
  <path id="패스_4272" data-name="패스 4272" class="cls-2" d="M730.591,279.72a10.886,10.886,0,0,1-7.72-3.2.711.711,0,1,1,1.005-1,9.488,9.488,0,0,0,13.43,0,.711.711,0,0,1,1.005,1,10.885,10.885,0,0,1-7.72,3.2Z" transform="translate(-717.095 -253.947)"/>
  <g id="그룹_2596" data-name="그룹 2596" transform="translate(0 21.298)">
    <path id="패스_4273" data-name="패스 4273" class="cls-2" d="M702.14,284.924a.711.711,0,0,1-.711-.711v-.855a7.987,7.987,0,0,1,3.526-6.63l2.285-1.541a.711.711,0,1,1,.795,1.178l-2.285,1.541a6.567,6.567,0,0,0-2.9,5.452v.855A.711.711,0,0,1,702.14,284.924Z" transform="translate(-701.429 -275.066)"/>
    <path id="패스_4274" data-name="패스 4274" class="cls-2" d="M784.187,284.924a.711.711,0,0,1-.711-.711v-.855a6.567,6.567,0,0,0-2.9-5.452l-2.285-1.541a.711.711,0,1,1,.795-1.178l2.285,1.541a7.986,7.986,0,0,1,3.525,6.63v.855A.711.711,0,0,1,784.187,284.924Z" transform="translate(-757.905 -275.066)"/>
  </g>
</svg>
