<svg xmlns="http://www.w3.org/2000/svg" width="26.615" height="23.953" viewBox="0 0 26.615 23.953">
    <g data-name="그룹 2586">
        <path data-name="패스 4245" d="M17.323 12a5.323 5.323 0 1 0 5.323 5.323A5.395 5.395 0 0 0 17.323 12zm0 7.984a2.661 2.661 0 1 1 2.661-2.661 2.733 2.733 0 0 1-2.661 2.661z" transform="translate(-4.016 -4.016)" style="fill:#fff"/>
        <path data-name="패스 4246" d="M26.953 6.992h-3.441l-3.6-3.6A1.325 1.325 0 0 0 18.969 3h-5.323a1.325 1.325 0 0 0-.94.39l-3.6 3.6H5.661A2.664 2.664 0 0 0 3 9.654v14.638a2.664 2.664 0 0 0 2.661 2.661h21.292a2.664 2.664 0 0 0 2.661-2.661V9.654a2.664 2.664 0 0 0-2.661-2.662zm-21.292 17.3V9.654h3.993a1.324 1.324 0 0 0 .94-.39l3.6-3.6h4.221l3.6 3.6a1.325 1.325 0 0 0 .941.39h3.992v14.638z" transform="translate(-3 -3)" style="fill:#fff"/>
    </g>
</svg>
