<svg xmlns="http://www.w3.org/2000/svg" width="18.073" height="20.081" viewBox="0 0 18.073 20.081">
  <defs>
    <style>
      .cls-1 {
        fill: #fa4545;
      }
    </style>
  </defs>
  <g id="bx-calendar-heart" transform="translate(-4.5 -3)">
    <path id="패스_26" data-name="패스 26" class="cls-1" d="M12.648,20.226l3.362,3.3,3.364-3.3a2.138,2.138,0,0,0,0-3.082,2.234,2.234,0,0,0-3.139,0l-.225.22-.225-.22a2.233,2.233,0,0,0-3.138,0,2.138,2.138,0,0,0,0,3.082Z" transform="translate(-2.477 -4.464)"/>
    <path id="패스_27" data-name="패스 27" d="M20.565,5.008H18.557V3H16.548V5.008H10.524V3H8.516V5.008H6.508A2.01,2.01,0,0,0,4.5,7.016V21.073a2.01,2.01,0,0,0,2.008,2.008H20.565a2.01,2.01,0,0,0,2.008-2.008V7.016A2.01,2.01,0,0,0,20.565,5.008Zm0,16.065H6.508V9.024H20.565Z" transform="translate(0 0)"/>
  </g>
</svg>
