<svg xmlns="http://www.w3.org/2000/svg" width="17.526" height="18.5" viewBox="0 0 17.526 18.5">
    <path data-name="패스 4275" d="M19.342 8.921A2.921 2.921 0 1 1 16.421 6a2.921 2.921 0 0 1 2.921 2.921z" transform="translate(-7.658 -4.053)" style="fill:none"/>
    <path data-name="패스 4276" d="M8.763 0a4.868 4.868 0 1 0 4.868 4.868A4.874 4.874 0 0 0 8.763 0zm0 7.789a2.921 2.921 0 1 1 2.921-2.921 2.925 2.925 0 0 1-2.921 2.921zM17.526 18.5v-.974a6.825 6.825 0 0 0-6.816-6.816H6.816A6.824 6.824 0 0 0 0 17.526v.974h1.947v-.974a4.874 4.874 0 0 1 4.868-4.868h3.895a4.874 4.874 0 0 1 4.868 4.868v.974z"/>
</svg>
