<svg xmlns="http://www.w3.org/2000/svg" width="37.036" height="30.421" viewBox="0 0 37.036 30.421">
    <g data-name="그룹 1286" style="opacity:.38">
        <g data-name="그룹 702">
            <path data-name="패스 949" d="M593.167 382.648a4.4 4.4 0 0 1 3.728 2.454l2.285 3.958c.369.638.7.776.746.776s.238-.115.469-.517a4.118 4.118 0 0 1 3.515-2.275 4.505 4.505 0 0 1 3.792 2.535l1.839 3.183a4.058 4.058 0 0 1-3.727 6.458h-17.069a4.059 4.059 0 0 1-3.729-6.457l4.423-7.661a4.4 4.4 0 0 1 3.728-2.454zm6.759 10.7a4.5 4.5 0 0 1-3.791-2.535l-2.284-3.957c-.3-.526-.592-.7-.683-.7s-.378.17-.682.7l-4.423 7.66c-.3.526-.307.86-.261.94s.337.243.945.243h17.068c.608 0 .9-.164.944-.243s.042-.413-.262-.94l-1.839-3.184c-.369-.639-.7-.776-.747-.777s-.237.115-.469.516a4.117 4.117 0 0 1-3.516 2.282z" transform="translate(-578.76 -375.724)" style="fill:#8a8a8a"/>
        </g>
        <path data-name="사각형 165" d="M4.669-1.5h24.7a6.176 6.176 0 0 1 6.169 6.169v18.083a6.176 6.176 0 0 1-6.169 6.169h-24.7A6.176 6.176 0 0 1-1.5 22.752V4.669A6.176 6.176 0 0 1 4.669-1.5zm24.7 26.9a2.655 2.655 0 0 0 2.652-2.652V4.669a2.655 2.655 0 0 0-2.652-2.652h-24.7a2.655 2.655 0 0 0-2.652 2.652v18.083A2.655 2.655 0 0 0 4.669 25.4z" transform="translate(1.5 1.5)" style="fill:#8a8a8a"/>
    </g>
</svg>
