<svg id="그룹_2468" data-name="그룹 2468" xmlns="http://www.w3.org/2000/svg" width="29.663" height="26.089" viewBox="0 0 29.663 26.089">
  <defs>
    <style>
      .cls-1 {
        fill: #3e3a39;
      }

      .cls-2 {
        fill: #ff8282;
      }
    </style>
  </defs>
  <g id="그룹_2465" data-name="그룹 2465">
    <g id="그룹_2463" data-name="그룹 2463" transform="translate(9.789 3.686)">
      <path id="패스_3878" data-name="패스 3878" class="cls-1" d="M473.593,893.187a.7.7,0,0,1-.664-.477l-.987-2.927-.987,2.927a.7.7,0,0,1-1.328,0l-2.15-6.378a.7.7,0,1,1,1.328-.448l1.486,4.408.986-2.927a.7.7,0,0,1,1.329,0l.987,2.927,1.486-4.408a.7.7,0,1,1,1.329.448l-2.151,6.378A.7.7,0,0,1,473.593,893.187Z" transform="translate(-466.899 -885.406)"/>
      <g id="그룹_2462" data-name="그룹 2462" transform="translate(0 3.618)">
        <path id="패스_3879" data-name="패스 3879" class="cls-1" d="M467.875,898.421h-1.468a.7.7,0,1,1,0-1.4h1.468a.7.7,0,1,1,0,1.4Z" transform="translate(-465.706 -897.019)"/>
        <path id="패스_3880" data-name="패스 3880" class="cls-1" d="M491.032,898.421h-1.467a.7.7,0,1,1,0-1.4h1.467a.7.7,0,0,1,0,1.4Z" transform="translate(-481.649 -897.019)"/>
      </g>
    </g>
    <g id="그룹_2464" data-name="그룹 2464" transform="translate(4.355)">
      <path id="패스_3881" data-name="패스 3881" class="cls-1" d="M468.517,896.406H448.966a.7.7,0,0,1-.7-.7V874.713a.7.7,0,0,1,.973-.646l.493.207,1.53-.644a.7.7,0,0,1,.544,0l1.53.644,1.53-.644a.7.7,0,0,1,.544,0l1.53.644,1.529-.644a.7.7,0,0,1,.544,0l1.529.644,1.53-.644a.7.7,0,0,1,.544,0l1.531.644,1.53-.644a.7.7,0,0,1,.544,0l1.531.644.494-.208a.7.7,0,0,1,.973.646V895.7A.7.7,0,0,1,468.517,896.406Zm-18.85-1.4h18.149V875.733a.7.7,0,0,1-.337-.052l-1.531-.644-1.53.644a.7.7,0,0,1-.544,0l-1.531-.644-1.53.644a.7.7,0,0,1-.544,0l-1.529-.644-1.529.644a.7.7,0,0,1-.544,0l-1.529-.644-1.53.644a.7.7,0,0,1-.544,0l-1.53-.644-1.53.644a.684.684,0,0,1-.336.052Z" transform="translate(-448.265 -873.575)"/>
    </g>
    <path id="패스_3882" data-name="패스 3882" class="cls-1" d="M466.573,943.755H443.807a.7.7,0,1,1,0-1.4h22.766a.7.7,0,0,1,0,1.4Z" transform="translate(-440.358 -920.924)"/>
    <path id="패스_3883" data-name="패스 3883" class="cls-1" d="M463.248,941.042H434.987a.7.7,0,0,1-.7-.7V934.38a.7.7,0,0,1,.7-.7h3.971a.7.7,0,1,1,0,1.4h-3.27v4.559h26.859v-4.559h-1.521a.7.7,0,1,1,0-1.4h2.222a.7.7,0,0,1,.7.7v5.961A.7.7,0,0,1,463.248,941.042Z" transform="translate(-434.286 -914.953)"/>
  </g>
  <g id="그룹_2466" data-name="그룹 2466" transform="translate(9.478 13.964)">
    <line id="선_848" data-name="선 848" class="cls-2" x2="9.305" transform="translate(0.701 0.701)"/>
    <path id="패스_3884" data-name="패스 3884" class="cls-2" d="M474.714,919.8h-9.3a.7.7,0,1,1,0-1.4h9.3a.7.7,0,1,1,0,1.4Z" transform="translate(-464.708 -918.394)"/>
  </g>
  <g id="그룹_2467" data-name="그룹 2467" transform="translate(9.478 17.382)">
    <line id="선_849" data-name="선 849" class="cls-2" x2="9.305" transform="translate(0.701 0.701)"/>
    <path id="패스_3885" data-name="패스 3885" class="cls-2" d="M474.714,930.766h-9.3a.7.7,0,0,1,0-1.4h9.3a.7.7,0,0,1,0,1.4Z" transform="translate(-464.708 -929.364)"/>
  </g>
</svg>
