<svg xmlns="http://www.w3.org/2000/svg" width="46" height="46" viewBox="0 0 46 46">
  <defs>
    <style>
      .cls-1 {
        fill: #ff9659;
      }

      .cls-2 {
        fill: #fff;
      }

      .cls-3 {
        fill: rgba(0,0,0,0);
      }

      .cls-4 {
        fill: #fff8f7;
      }

      .cls-5, .cls-7 {
        fill: none;
      }

      .cls-5 {
        stroke: #fff;
        stroke-width: 2px;
      }

      .cls-6 {
        stroke: none;
      }
    </style>
  </defs>
  <g id="그룹_2843" data-name="그룹 2843" transform="translate(-34 -506)">
    <g id="man" transform="translate(43.178 512.922)">
      <rect id="사각형_548" data-name="사각형 548" class="cls-1" width="2.552" height="2.552" transform="translate(14.411 23.08) rotate(45)"/>
      <path id="사각형_548_-_윤곽선" data-name="사각형 548 - 윤곽선" class="cls-1" d="M.711,0H3.263a.711.711,0,0,1,.711.711V3.263a.711.711,0,0,1-.711.711H.711A.711.711,0,0,1,0,3.263V.711A.711.711,0,0,1,.711,0ZM2.552,1.421H1.421V2.552H2.552Z" transform="translate(14.411 22.075) rotate(45)"/>
      <path id="패스_4250" data-name="패스 4250" class="cls-2" d="M543.946,287.12l-1.8,5.735h3.61Z" transform="translate(-529.535 -262.409)"/>
      <path id="패스_4250_-_윤곽선" data-name="패스 4250 - 윤곽선" class="cls-2" d="M542.906,285.37a.711.711,0,0,1,.678.5l1.8,5.735a.711.711,0,0,1-.678.924H541.1a.711.711,0,0,1-.678-.924l1.8-5.735A.711.711,0,0,1,542.906,285.37Zm.836,5.735-.836-2.657-.836,2.657Z" transform="translate(-528.495 -261.369)"/>
      <path id="선_852" data-name="선 852" class="cls-2" d="M-1.039,2.114A.711.711,0,0,1-1.75,1.4V-1.039a.711.711,0,0,1,.711-.711.711.711,0,0,1,.711.711V1.4A.711.711,0,0,1-1.039,2.114Z" transform="translate(11.933 17.846)"/>
      <path id="선_853" data-name="선 853" class="cls-2" d="M-1.039,2.114A.711.711,0,0,1-1.75,1.4V-1.039a.711.711,0,0,1,.711-.711.711.711,0,0,1,.711.711V1.4A.711.711,0,0,1-1.039,2.114Z" transform="translate(18.967 17.846)"/>
      <path id="패스_4251" data-name="패스 4251" class="cls-3" d="M537.637,215.564v3.058a6.28,6.28,0,0,1-6.28,6.28h0a6.28,6.28,0,0,1-6.28-6.28v-3.058a4.517,4.517,0,0,0,2.738-3.5h6.2A8.1,8.1,0,0,0,537.637,215.564Z" transform="translate(-516.946 -207.035)"/>
      <path id="패스_4251_-_윤곽선" data-name="패스 4251 - 윤곽선" class="cls-2" d="M526.776,210.313h6.2a.711.711,0,0,1,.64.4,7.238,7.238,0,0,0,.828,1.235,6.826,6.826,0,0,0,2.442,1.925.711.711,0,0,1,.423.65v3.058a6.99,6.99,0,1,1-13.981,0v-3.058a.7.7,0,0,1,.5-.678,3.045,3.045,0,0,0,.937-.587,4.325,4.325,0,0,0,1.319-2.387A.711.711,0,0,1,526.776,210.313Zm5.781,1.421h-5.232a5.3,5.3,0,0,1-2.576,3.252v2.6a5.569,5.569,0,1,0,11.138,0V214.97A8.844,8.844,0,0,1,532.557,211.734Z" transform="translate(-515.907 -205.996)"/>
      <path id="패스_4252" data-name="패스 4252" class="cls-3" d="M519.689,229.676a1.533,1.533,0,0,0,0,3.065" transform="translate(-511.841 -220.029)"/>
      <path id="패스_4252_-_윤곽선" data-name="패스 4252 - 윤곽선" class="cls-2" d="M518.65,232.412a2.243,2.243,0,0,1,0-4.486.711.711,0,0,1,0,1.421.822.822,0,0,0,0,1.644.711.711,0,0,1,0,1.421Z" transform="translate(-510.801 -218.99)"/>
      <path id="패스_4253" data-name="패스 4253" class="cls-3" d="M574.045,232.741a1.533,1.533,0,1,0,0-3.065" transform="translate(-553.072 -220.029)"/>
      <path id="패스_4253_-_윤곽선" data-name="패스 4253 - 윤곽선" class="cls-2" d="M573.006,232.412a.711.711,0,1,1,0-1.421.822.822,0,0,0,0-1.644.711.711,0,1,1,0-1.421,2.243,2.243,0,0,1,0,4.486Z" transform="translate(-552.033 -218.99)"/>
      <ellipse id="타원_16" data-name="타원 16" class="cls-2" cx="0.715" cy="0.977" rx="0.715" ry="0.977" transform="translate(11.249 9.385)"/>
      <path id="타원_16_-_윤곽선" data-name="타원 16 - 윤곽선" class="cls-3" d="M.418-.5a.829.829,0,0,1,.669.369A1.378,1.378,0,0,1,1.336.68a1.378,1.378,0,0,1-.249.811.829.829,0,0,1-.669.369.829.829,0,0,1-.669-.369A1.378,1.378,0,0,1-.5.68,1.378,1.378,0,0,1-.251-.131.829.829,0,0,1,.418-.5Zm0,1.954C.7,1.454.93,1.1.93.68S.7-.094.418-.094-.094.261-.094.68.14,1.454.418,1.454Z" transform="translate(11.546 9.682)"/>
      <path id="패스_4254" data-name="패스 4254" class="cls-2" d="M557.057,229.655c0,.539-.32.977-.715.977s-.715-.437-.715-.977.32-.977.715-.977S557.057,229.115,557.057,229.655Z" transform="translate(-539.484 -219.293)"/>
      <path id="패스_4254_-_윤곽선" data-name="패스 4254 - 윤곽선" class="cls-3" d="M556.045,230.538a.829.829,0,0,1-.669-.369,1.447,1.447,0,0,1,0-1.621.791.791,0,0,1,1.339,0,1.446,1.446,0,0,1,0,1.622A.829.829,0,0,1,556.045,230.538Zm0-1.954c-.278,0-.512.354-.512.774s.234.774.512.774.512-.354.512-.774S556.322,228.584,556.045,228.584Z" transform="translate(-539.187 -218.996)"/>
      <path id="패스_4255" data-name="패스 4255" class="cls-3" d="M542.536,245.238a2.406,2.406,0,0,0,3.4,0" transform="translate(-529.826 -231.51)"/>
      <path id="패스_4255_-_윤곽선" data-name="패스 4255 - 윤곽선" class="cls-2" d="M543.2,245.614a3.1,3.1,0,0,1-2.2-.913.711.711,0,0,1,1-1,1.7,1.7,0,0,0,2.4,0,.711.711,0,0,1,1.005,1A3.1,3.1,0,0,1,543.2,245.614Z" transform="translate(-528.787 -230.471)"/>
      <path id="패스_4256" data-name="패스 4256" class="cls-3" d="M523.948,264.071l5.084,3.844-2.48,3.1-4.712-5.084Z" transform="translate(-514.558 -245.405)"/>
      <path id="패스_4256_-_윤곽선" data-name="패스 4256 - 윤곽선" class="cls-2" d="M522.909,262.321a.709.709,0,0,1,.429.144l5.084,3.844a.711.711,0,0,1,.126,1.011l-2.48,3.1a.711.711,0,0,1-1.076.039l-4.712-5.084a.711.711,0,0,1,.051-1.016l2.108-1.86A.71.71,0,0,1,522.909,262.321ZM526.981,267l-4.038-3.053-1.126.994,3.656,3.945Z" transform="translate(-513.518 -244.365)"/>
      <path id="패스_4257" data-name="패스 4257" class="cls-3" d="M503.477,274.473l-3.756,1.947a5.447,5.447,0,0,0-2.94,4.836v2.268" transform="translate(-496.07 -253.079)"/>
      <path id="패스_4257_-_윤곽선" data-name="패스 4257 - 윤곽선" class="cls-2" d="M495.742,283.2a.711.711,0,0,1-.711-.711v-2.268a6.158,6.158,0,0,1,3.323-5.467l3.756-1.947a.711.711,0,0,1,.654,1.262l-3.756,1.947a4.736,4.736,0,0,0-2.556,4.2v2.268A.711.711,0,0,1,495.742,283.2Z" transform="translate(-495.031 -252.039)"/>
      <path id="패스_4258" data-name="패스 4258" class="cls-3" d="M553.867,264.071l-5.084,3.844,2.48,3.1,4.712-5.084Z" transform="translate(-534.435 -245.405)"/>
      <path id="패스_4258_-_윤곽선" data-name="패스 4258 - 윤곽선" class="cls-4" d="M552.828,262.321a.709.709,0,0,1,.47.178l2.108,1.86a.711.711,0,0,1,.051,1.016l-4.712,5.084a.711.711,0,0,1-1.076-.039l-2.48-3.1a.711.711,0,0,1,.126-1.011l5.084-3.844A.709.709,0,0,1,552.828,262.321Zm1.092,2.622-1.126-.994L548.755,267l1.508,1.885Z" transform="translate(-533.396 -244.365)"/>
      <path id="패스_4259" data-name="패스 4259" class="cls-3" d="M575.733,274.473l3.756,1.947a5.447,5.447,0,0,1,2.94,4.836v2.268" transform="translate(-554.317 -253.079)"/>
      <path id="패스_4259_-_윤곽선" data-name="패스 4259 - 윤곽선" class="cls-2" d="M581.389,283.2a.711.711,0,0,1-.711-.711v-2.268a4.737,4.737,0,0,0-2.556-4.2l-3.756-1.947a.711.711,0,0,1,.654-1.262l3.756,1.947a6.158,6.158,0,0,1,3.323,5.467v2.268A.711.711,0,0,1,581.389,283.2Z" transform="translate(-553.278 -252.039)"/>
      <path id="패스_4260" data-name="패스 4260" class="cls-3" d="M533.582,203.42s1.958-6.725-3.746-7.593-6.819,1.116-9.547.248c0,0-2,2.414.734,7.345" transform="translate(-512.891 -194.891)"/>
      <path id="패스_4260_-_윤곽선" data-name="패스 4260 - 윤곽선" class="cls-2" d="M532.543,203.091a.711.711,0,0,1-.683-.909c.013-.045.869-3.107-.391-5.074a3.249,3.249,0,0,0-1.017-1.006,4.6,4.6,0,0,0-1.763-.612,14.618,14.618,0,0,0-5.988.192,6.945,6.945,0,0,1-3.11.179,3.957,3.957,0,0,0-.31,1.2,6.239,6.239,0,0,0,.146,2.03,11.279,11.279,0,0,0,1.177,2.945.711.711,0,1,1-1.242.69,12.567,12.567,0,0,1-1.343-3.424,7.493,7.493,0,0,1-.134-2.534,4.427,4.427,0,0,1,.818-2.186.711.711,0,0,1,.762-.223,5.085,5.085,0,0,0,2.938-.066,15.964,15.964,0,0,1,6.5-.207,5.14,5.14,0,0,1,3.766,2.263c1.609,2.519.6,6.081.555,6.231A.711.711,0,0,1,532.543,203.091Z" transform="translate(-511.852 -193.852)"/>
    </g>
    <g id="타원_17" data-name="타원 17" class="cls-5" transform="translate(34 506)">
      <circle class="cls-6" cx="23" cy="23" r="23"/>
      <circle class="cls-7" cx="23" cy="23" r="22"/>
    </g>
  </g>
</svg>
