<svg xmlns="http://www.w3.org/2000/svg" width="23.149" height="23.149" viewBox="0 0 23.149 23.149">
    <g data-name="그룹 1272">
        <path d="M14.78 3.375a11.4 11.4 0 1 0 11.4 11.4 11.418 11.418 0 0 0-11.4-11.4zm4.1 13.862a27.922 27.922 0 0 1-4.1 3.483 27.775 27.775 0 0 1-4.1-3.483 6.352 6.352 0 0 1-1.606-4.195 3.093 3.093 0 0 1 3.044-3.089 3.339 3.339 0 0 1 2.537 1.247l.125.151.12-.151a3.3 3.3 0 0 1 2.532-1.246 3.092 3.092 0 0 1 3.044 3.089 6.355 6.355 0 0 1-1.606 4.194z" transform="translate(-3.205 -3.205)" style="fill:#fff"/>
        <path data-name="패스 89" d="M25.4 14.949A10.449 10.449 0 1 0 14.949 25.4 10.452 10.452 0 0 0 25.4 14.949z" style="fill:none;stroke:red;stroke-miterlimit:10;stroke-width:2.25px" transform="translate(-3.375 -3.375)"/>
        <path data-name="패스 90" d="M16.347 22.262a.871.871 0 0 1-.49-.151 15.955 15.955 0 0 1-3.576-3.07 6.305 6.305 0 0 1-1.595-4.164 3.07 3.07 0 0 1 3.022-3.066 3.258 3.258 0 0 1 2.4 1.111.327.327 0 0 0 .474 0 3.258 3.258 0 0 1 2.4-1.111 3.069 3.069 0 0 1 3.022 3.066 6.311 6.311 0 0 1-1.595 4.164 15.894 15.894 0 0 1-3.576 3.07.871.871 0 0 1-.486.151z" transform="translate(-4.773 -5.027)" style="fill:red"/>
    </g>
</svg>
