<svg id="bx-trash" xmlns="http://www.w3.org/2000/svg" width="16.593" height="18.437" viewBox="0 0 16.593 18.437">
  <defs>
    <style>
      .cls-1 {
        fill: none;
      }

      .cls-2 {
        fill: #888;
      }
    </style>
  </defs>
  <path id="패스_3901" data-name="패스 3901" class="cls-1" d="M19.724,20.749V9.687H10.5V20.749Zm-3.689-9.218h1.844v7.375H16.035Zm-3.687,0h1.844v7.375H12.348Zm0-5.531h5.531V7.844H12.348Z" transform="translate(-6.817 -4.156)"/>
  <path id="패스_3902" data-name="패스 3902" class="cls-2" d="M6.349,19.593a1.845,1.845,0,0,0,1.844,1.844h9.218a1.845,1.845,0,0,0,1.844-1.844V8.531H21.1V6.687H17.411V4.844A1.845,1.845,0,0,0,15.567,3H10.036A1.845,1.845,0,0,0,8.192,4.844V6.687H4.505V8.531H6.349V19.593ZM10.036,4.844h5.531V6.687H10.036ZM9.114,8.531h8.3V19.593H8.192V8.531Z" transform="translate(-4.505 -3)"/>
  <path id="패스_3903" data-name="패스 3903" class="cls-2" d="M13.505,15h1.844v7.375H13.505Zm3.687,0h1.844v7.375H17.192Z" transform="translate(-7.974 -7.625)"/>
</svg>
