<svg id="bx-share-alt" xmlns="http://www.w3.org/2000/svg" width="17.351" height="18.265" viewBox="0 0 17.351 18.265">
  <defs>
    <style>
      .cls-1 {
        fill: none;
      }

      .cls-2 {
        fill: #888;
      }
    </style>
  </defs>
  <path id="패스_3897" data-name="패스 3897" class="cls-1" d="M26.74,26.87a1.37,1.37,0,1,1-1.37-1.37A1.37,1.37,0,0,1,26.74,26.87Z" transform="translate(-11.215 -11.801)"/>
  <path id="패스_3898" data-name="패스 3898" class="cls-1" d="M8.74,16.37A1.37,1.37,0,1,1,7.37,15,1.37,1.37,0,0,1,8.74,16.37Z" transform="translate(-4.174 -7.694)"/>
  <path id="패스_3899" data-name="패스 3899" class="cls-1" d="M26.74,7.37A1.37,1.37,0,1,1,25.37,6,1.37,1.37,0,0,1,26.74,7.37Z" transform="translate(-11.215 -4.174)"/>
  <path id="패스_3900" data-name="패스 3900" class="cls-2" d="M6.2,14.872a3.178,3.178,0,0,0,2.153-.849l5.717,3.266A3.213,3.213,0,1,0,15,15.721L9.285,12.455a3.055,3.055,0,0,0,.1-.7L15,8.544a3.29,3.29,0,1,0-.935-1.568L8.875,9.942A3.194,3.194,0,1,0,6.2,14.872ZM17.155,16.7a1.37,1.37,0,1,1-1.37,1.37A1.372,1.372,0,0,1,17.155,16.7Zm0-11.872a1.37,1.37,0,1,1-1.37,1.37A1.372,1.372,0,0,1,17.155,4.826ZM6.2,10.306a1.37,1.37,0,1,1-1.37,1.37A1.372,1.372,0,0,1,6.2,10.306Z" transform="translate(-3 -3)"/>
</svg>
