<svg xmlns="http://www.w3.org/2000/svg" width="17.999" height="17.999" viewBox="0 0 17.999 17.999">
    <path data-name="패스 10" d="M.901 9.901h.9v6.3a1.8 1.8 0 0 0 1.8 1.8h10.8a1.8 1.8 0 0 0 1.8-1.8v-6.3h.9a.9.9 0 0 0 .636-1.536l-8.1-8.1a.9.9 0 0 0-1.272 0l-8.1 8.1a.9.9 0 0 0 .636 1.536zm8.1-7.728 5.4 5.4v8.628h-10.8V7.573z"/>
    <path data-name="패스 11" d="M9 14.399a4.857 4.857 0 0 0 4.455-3.32l-1.71-.559A3.076 3.076 0 0 1 9 12.599a3.069 3.069 0 0 1-2.746-2.084l-1.709.565A4.859 4.859 0 0 0 9 14.399z"/>
</svg>
