<svg xmlns="http://www.w3.org/2000/svg" width="16.96" height="17.999" viewBox="0 0 16.96 17.999">
    <path data-name="패스 76" d="M8.48 12.6A3.6 3.6 0 1 0 4.88 9a3.6 3.6 0 0 0 3.6 3.6zm0-5.4A1.8 1.8 0 1 1 6.68 9a1.824 1.824 0 0 1 1.8-1.8z"/>
    <path data-name="패스 77" d="m.241 12.722.9 1.557a1.85 1.85 0 0 0 2.457.657l.476-.275a7.29 7.29 0 0 0 1.706 1v.539a1.8 1.8 0 0 0 1.8 1.8h1.8a1.8 1.8 0 0 0 1.8-1.8v-.538a7.318 7.318 0 0 0 1.706-1l.476.275a1.85 1.85 0 0 0 2.457-.658l.9-1.556a1.8 1.8 0 0 0-.658-2.459L15.606 10a6.946 6.946 0 0 0 0-2l.455-.263a1.8 1.8 0 0 0 .658-2.459l-.9-1.556a1.847 1.847 0 0 0-2.457-.659l-.476.275a7.29 7.29 0 0 0-1.706-1V1.8A1.8 1.8 0 0 0 9.38 0h-1.8a1.8 1.8 0 0 0-1.8 1.8v.538a7.318 7.318 0 0 0-1.706 1l-.476-.275a1.85 1.85 0 0 0-2.457.659l-.9 1.556a1.8 1.8 0 0 0 .658 2.459L1.354 8a6.914 6.914 0 0 0 0 2l-.455.263a1.8 1.8 0 0 0-.658 2.459zm2.993-2.482a5.083 5.083 0 0 1 0-2.48.9.9 0 0 0-.423-1l-1.01-.585.9-1.556 1.031.6a.9.9 0 0 0 1.069-.128A5.464 5.464 0 0 1 6.943 3.83a.9.9 0 0 0 .637-.86V1.8h1.8v1.17a.9.9 0 0 0 .637.86 5.475 5.475 0 0 1 2.145 1.259.9.9 0 0 0 1.069.128l1.03-.6.9 1.556-1.012.584a.9.9 0 0 0-.423 1 5.083 5.083 0 0 1 0 2.48.9.9 0 0 0 .424 1l1.01.584-.9 1.556-1.031-.6a.9.9 0 0 0-1.069.128 5.464 5.464 0 0 1-2.145 1.259.9.9 0 0 0-.636.859v1.17h-1.8v-1.17a.9.9 0 0 0-.637-.86 5.475 5.475 0 0 1-2.145-1.259.893.893 0 0 0-1.069-.127l-1.03.6-.9-1.556 1.012-.586a.9.9 0 0 0 .424-1z"/>
</svg>
