<svg xmlns="http://www.w3.org/2000/svg" width="17.494" height="18.468" viewBox="0 0 17.494 18.468">
  <defs>
    <style>
      .cls-1 {
        fill: #ff3e3e;
      }

      .cls-2 {
        fill: #595757;
      }
    </style>
  </defs>
  <g id="그룹_2775" data-name="그룹 2775" transform="translate(-111.366 -700.41)">
    <g id="그룹_2802" data-name="그룹 2802" transform="translate(111.366 700.41)">
      <path id="패스_4715" data-name="패스 4715" class="cls-1" d="M120.113,709.468c-4.987,0-8.747-1.947-8.747-4.529s3.761-4.529,8.747-4.529,8.747,1.947,8.747,4.529S125.1,709.468,120.113,709.468Zm0-6.977c-4.069,0-6.666,1.45-6.666,2.448s2.6,2.448,6.666,2.448,6.666-1.45,6.666-2.448S124.182,702.491,120.113,702.491Z" transform="translate(-111.366 -700.41)"/>
    </g>
    <g id="그룹_2803" data-name="그룹 2803" transform="translate(111.366 709.644)">
      <path id="패스_4716" data-name="패스 4716" class="cls-2" d="M120.113,744.873c-4.987,0-8.747-1.947-8.747-4.529h2.081c0,1,2.6,2.448,6.666,2.448s6.666-1.45,6.666-2.448h2.081C128.86,742.926,125.1,744.873,120.113,744.873Z" transform="translate(-111.366 -740.344)"/>
    </g>
    <g id="그룹_2804" data-name="그룹 2804" transform="translate(111.366 714.349)">
      <path id="패스_4717" data-name="패스 4717" class="cls-2" d="M120.113,765.22c-4.987,0-8.747-1.947-8.747-4.529h2.081c0,1,2.6,2.448,6.666,2.448s6.666-1.45,6.666-2.448h2.081C128.86,763.273,125.1,765.22,120.113,765.22Z" transform="translate(-111.366 -760.691)"/>
    </g>
  </g>
</svg>
