<svg xmlns="http://www.w3.org/2000/svg" width="409.785" height="316.46" viewBox="0 0 409.785 316.46">
    <g data-name="그룹 2821" transform="translate(-54.085 -113.647)">
        <path data-name="패스 2905" d="M90.5 936.473a10.227 10.227 0 1 1 10.2-11.142 10.24 10.24 0 0 1-9.273 11.1c-.312.028-.62.042-.927.042zm.013-17.4c-.214 0-.429.01-.647.029a7.174 7.174 0 1 0 7.786 6.5 7.185 7.185 0 0 0-7.136-6.531z" transform="translate(-10.868 -519.656)" style="fill:#ffcfcf"/>
        <path data-name="패스 2906" d="M912.826 203.147a10.247 10.247 0 1 1 1.274-.08 10.344 10.344 0 0 1-1.274.08zm.021-17.4a7.27 7.27 0 0 0-.9.057 7.174 7.174 0 1 0 1.779 14.237 7.175 7.175 0 0 0-.875-14.294z" transform="translate(-484.365 -65.783)" style="fill:#ffff61"/>
        <path data-name="패스 2907" d="m814.438 948.295-.878-11.344-11.005.24-1.032-13.311-14 1.085-.966-12.48 3.044-.236.731 9.436 14-1.085 1.044 13.476 11.005-.24 1.1 14.223z" transform="translate(-415.81 -518.187)" style="fill:#5ff"/>
        <path data-name="패스 2908" d="m877.628 97.144-11.087-5.811 1.418-2.7 8.382 4.394 6.52-12.439 11.971 6.275 5.643-9.451 12.636 6.623-1.418 2.7-10.078-5.283-5.643 9.448-11.825-6.2z" transform="translate(-471.384 252.174)" style="fill:#ffcfcf"/>
        <path data-name="패스 2910" d="m56.043 245.705-.864-2.928 10.913-3.221-2.526-10.714 12.8-3.78-3.976-13.469 12.01-3.544.864 2.928-9.077 2.68 3.976 13.469-12.963 3.826 2.526 10.714z" transform="translate(-1.093 -94.402)" style="fill:#fff"/>
        <path data-name="패스 2911" d="m936.054 451.3-1.918.78-2.906-7.148-7.06 2.423-3.409-8.387-8.822 3.586-3.2-7.863 1.918-.78 2.417 5.945 8.822-3.586 3.451 8.49 7.06-2.423z" transform="translate(-486.756 -227.549)" style="fill:#fff"/>
        <path data-name="패스 2912" d="m112.384 706.4-3.023-.426 1.321-9.371-13.906-1.96 1.886-13.383-10.8-2.139L89.854 665l3.023.426-1.587 11.265 10.8 2.139-1.863 13.22 13.906 1.96z" transform="translate(-13.821 -370.626)" style="fill:#fff0f7"/>
        <path data-name="패스 2913" d="M809.68 515.1a2.4 2.4 0 0 1-.459-.045 2.355 2.355 0 0 1-1.836-1.7l-2.056-7.532-7.37-2.575a2.372 2.372 0 0 1-.519-4.221l6.528-4.283.172-7.806a2.371 2.371 0 0 1 3.854-1.8l6.091 4.884 7.477-2.248a2.371 2.371 0 0 1 2.9 3.11l-2.763 7.3 4.448 6.416a2.371 2.371 0 0 1-2.061 3.72l-7.8-.371-4.727 6.213a2.355 2.355 0 0 1-1.879.938zm-9.41-14.281 6.4 2.238a2.37 2.37 0 0 1 1.505 1.615l1.787 6.543 4.108-5.4a2.381 2.381 0 0 1 2-.932l6.777.323-3.866-5.575a2.372 2.372 0 0 1-.269-2.19l2.4-6.345-6.5 1.953a2.369 2.369 0 0 1-2.166-.421l-5.292-4.243-.15 6.782a2.371 2.371 0 0 1-1.068 1.93zm13.47-10.694zm7.865-.322z" transform="translate(-441.448 -259.771)" style="fill:#edff00"/>
        <path data-name="패스 2915" d="m740.09 757.633-1.565-5.132a.555.555 0 0 0-.363-.368l-5.116-1.62a.555.555 0 0 1-.15-.984l4.4-3.074a.555.555 0 0 0 .237-.459l-.04-5.365a.555.555 0 0 1 .889-.447l4.283 3.232a.553.553 0 0 0 .509.084l5.091-1.7a.555.555 0 0 1 .7.708l-1.751 5.072a.555.555 0 0 0 .078.51l3.186 4.318a.555.555 0 0 1-.457.885l-5.365-.1a.557.557 0 0 0-.462.232l-3.121 4.364a.555.555 0 0 1-.983-.156z" transform="translate(-381.336 -409.598)" style="fill:#f3f900"/>
        <path data-name="패스 2916" d="M949.954 688.135a1.473 1.473 0 0 1-1.411-1.042l-1.51-4.951-4.934-1.563a1.47 1.47 0 0 1-.4-2.607l4.242-2.965-.038-5.177a1.47 1.47 0 0 1 2.356-1.185l4.132 3.118 4.911-1.636a1.471 1.471 0 0 1 1.857 1.873l-1.689 4.893 3.073 4.165a1.47 1.47 0 0 1-1.183 2.344h-.027l-5.175-.094-3.011 4.21a1.462 1.462 0 0 1-1.193.617zm-6.6-9.082 4.418 1.4a1.471 1.471 0 0 1 .964.974l1.351 4.432 2.7-3.77a1.54 1.54 0 0 1 1.221-.615l4.636.084-2.752-3.728a1.473 1.473 0 0 1-.206-1.354l1.512-4.38-4.4 1.464a1.469 1.469 0 0 1-1.351-.221l-3.7-2.792.034 4.635a1.469 1.469 0 0 1-.627 1.216zm2.594-3.858z" transform="translate(-499.344 -367.371)" style="fill:#fff"/>
        <path data-name="패스 2917" d="M72.516 840.32a1.48 1.48 0 0 1-.242-.02 1.46 1.46 0 0 1-1.169-1.022l-1.51-4.951-4.934-1.563a1.471 1.471 0 0 1-.4-2.608l4.242-2.965-.038-5.177a1.47 1.47 0 0 1 2.356-1.185l4.132 3.118 4.911-1.635a1.47 1.47 0 0 1 1.855 1.874l-1.689 4.894 3.073 4.164a1.471 1.471 0 0 1-1.183 2.344h-.027l-5.175-.094-3.011 4.21a1.46 1.46 0 0 1-1.191.616zm-6.6-9.081 4.418 1.4a1.472 1.472 0 0 1 .964.974l1.351 4.432 2.7-3.77a1.538 1.538 0 0 1 1.221-.614l4.636.084-2.752-3.728a1.473 1.473 0 0 1-.206-1.354l1.512-4.38-4.4 1.465a1.469 1.469 0 0 1-1.36-.224l-3.7-2.792.034 4.634a1.469 1.469 0 0 1-.626 1.216zm2.594-3.858z" transform="translate(-4.386 -469.245)" style="fill:#ff0"/>
        <path data-name="패스 2918" d="M253.613 287.613a1.544 1.544 0 0 1-.242-.02 1.462 1.462 0 0 1-1.169-1.023l-1.51-4.951-4.934-1.562a1.471 1.471 0 0 1-.4-2.608l4.242-2.965-.038-5.177a1.471 1.471 0 0 1 2.357-1.185l4.131 3.118 4.911-1.636a1.47 1.47 0 0 1 1.855 1.874l-1.688 4.894 3.073 4.164a1.471 1.471 0 0 1-1.183 2.344h-.027l-5.175-.093-3.011 4.213a1.459 1.459 0 0 1-1.192.613zm-6.6-9.082 4.418 1.4a1.47 1.47 0 0 1 .963.974l1.352 4.432 2.7-3.77a1.539 1.539 0 0 1 1.221-.615l4.636.084-2.752-3.728a1.475 1.475 0 0 1-.207-1.354l1.512-4.38-4.4 1.465a1.47 1.47 0 0 1-1.351-.221l-3.7-2.792.034 4.634a1.468 1.468 0 0 1-.627 1.216zm2.594-3.858z" transform="translate(-107.938 -128.893)" style="fill:#fff"/>
        <path data-name="패스 2921" d="M883.357 330.2c-.063 0-.128 0-.191-.007a2.355 2.355 0 0 1-2.016-1.484l-2.9-7.25-7.615-1.724a2.371 2.371 0 0 1-.995-4.134l6-5-.714-7.774a2.371 2.371 0 0 1 3.625-2.223l6.605 4.163 7.174-3.081a2.37 2.37 0 0 1 3.234 2.761l-1.918 7.568 5.148 5.87a2.371 2.371 0 0 1-1.627 3.929l-7.789.515-3.993 6.709a2.354 2.354 0 0 1-2.028 1.162zm-10.7-13.138 6.617 1.5a2.371 2.371 0 0 1 1.678 1.433l2.518 6.3 3.469-5.829a2.367 2.367 0 0 1 1.882-1.153l6.769-.448-4.473-5.1a2.369 2.369 0 0 1-.516-2.144l1.666-6.579-6.234 2.678a2.366 2.366 0 0 1-2.2-.172l-5.741-3.617.62 6.756a2.369 2.369 0 0 1-.846 2.04zm16.906 4.96zm3.848-10.275zm-17.494-1.372z" transform="translate(-471.198 -149.172)" style="fill:#a6ffff"/>
        <path data-name="패스 2922" d="M309.4 964.8h-.2a5.5 5.5 0 0 1-3.557-9.51 5.424 5.424 0 0 1 3.94-1.473 5.5 5.5 0 0 1-.183 10.983zm-.009-9.159a3.663 3.663 0 0 0-.124 7.325h.129a3.664 3.664 0 0 0 .125-7.325z" transform="translate(-198.455 -724.708)" style="fill:#fff"/>
        <path data-name="패스 2923" d="M250.5 180.965a4.579 4.579 0 1 1 4.575-4.583 4.579 4.579 0 0 1-4.575 4.583z" transform="translate(-107.967 -46.906)" style="fill:#fff"/>
        <circle data-name="타원 5" cx="3.686" cy="3.686" r="3.686" transform="rotate(-45 727.274 -317.579)" style="fill:#fff"/>
        <circle data-name="타원 7" cx="4.579" cy="4.579" r="4.579" transform="translate(454.711 379.005)" style="fill:#5ff"/>
    </g>
</svg>
