<svg xmlns="http://www.w3.org/2000/svg" width="22.809" height="22.809" viewBox="0 0 22.809 22.809">
    <path d="M14.78 3.375a11.4 11.4 0 1 0 11.4 11.4 11.418 11.418 0 0 0-11.4-11.4zm4.1 13.862a27.922 27.922 0 0 1-4.1 3.483 27.775 27.775 0 0 1-4.1-3.483 6.352 6.352 0 0 1-1.606-4.195 3.093 3.093 0 0 1 3.044-3.089 3.339 3.339 0 0 1 2.537 1.247l.125.151.12-.151a3.3 3.3 0 0 1 2.532-1.246 3.092 3.092 0 0 1 3.044 3.089 6.355 6.355 0 0 1-1.606 4.194z" transform="translate(-3.375 -3.375)" style="fill:#fff" data-name="그룹 2829"/>
</svg>
