<svg xmlns="http://www.w3.org/2000/svg" width="19.471" height="21" viewBox="0 0 19.471 21">
  <defs>
    <style>
      .cls-1 {
        fill: #ff3e3e;
      }
    </style>
  </defs>
  <g id="그룹_2767" data-name="그룹 2767" transform="translate(-6002 -1063)">
    <path id="bx-hash" class="cls-1" d="M11.541,5.722l-.425,2.263H8.43l.387-2.064-1.062-.2L7.33,7.986H5.041V9.067H7.127l-.406,2.163H4.5v1.082H6.518l-.386,2.058,1.063.2.424-2.257H10.3l-.386,2.058,1.063.2.424-2.257h2.29V11.231H11.607l.406-2.163h2.221V7.986H12.216L12.6,5.922l-1.063-.2Zm-1.034,5.508H7.822l.406-2.163h2.686l-.407,2.163Z" transform="translate(6002.368 1061.605)"/>
    <path id="bx-message-alt" d="M21.807,3H6.663A2.165,2.165,0,0,0,4.5,5.163v12.98a2.165,2.165,0,0,0,2.163,2.163h3.879L14.235,24l3.693-3.693h3.879a2.165,2.165,0,0,0,2.163-2.163V5.163A2.165,2.165,0,0,0,21.807,3Zm0,15.144H17.033l-2.8,2.8-2.8-2.8H6.663V5.163H21.807Z" transform="translate(5997.5 1060)"/>
  </g>
</svg>
