<svg id="__TEMP__SVG__" xmlns="http://www.w3.org/2000/svg" width="16.279" height="16.279" viewBox="0 0 16.279 16.279">
  <defs>
    <style>
      .cls-1 {
        fill: none;
      }
    </style>
  </defs>
  <path id="패스_3908" data-name="패스 3908" class="cls-1" d="M12.512,6a6.512,6.512,0,1,0,6.512,6.512A6.519,6.519,0,0,0,12.512,6Zm.814,10.512V17.4H11.7v-.879A2.561,2.561,0,0,1,9.256,14.14h1.628c.009.116.129.814,1.628.814,1.123,0,1.628-.476,1.628-.814,0-.264,0-.814-1.628-.814-2.833,0-3.256-1.53-3.256-2.442A2.588,2.588,0,0,1,11.7,8.511V7.638h1.628v.9a2.444,2.444,0,0,1,1.954,2.344h-.814l-.814.015c-.011-.309-.175-.829-1.14-.829-1.057,0-1.628.42-1.628.814,0,.3,0,.814,1.628.814,2.833,0,3.256,1.53,3.256,2.442a2.588,2.588,0,0,1-2.442,2.373Z" transform="translate(-4.372 -4.372)"/>
  <path id="패스_3909" data-name="패스 3909" d="M11.14,3a8.14,8.14,0,1,0,8.14,8.14A8.149,8.149,0,0,0,11.14,3Zm0,14.651a6.512,6.512,0,1,1,6.512-6.512A6.519,6.519,0,0,1,11.14,17.651Z" transform="translate(-3 -3)"/>
  <path id="패스_3910" data-name="패스 3910" d="M15.256,13.078c-1.628,0-1.628-.51-1.628-.814,0-.394.57-.814,1.628-.814.965,0,1.128.519,1.14.829l.814-.015h.814A2.444,2.444,0,0,0,16.07,9.92v-.9H14.442v.873A2.588,2.588,0,0,0,12,12.264c0,.912.423,2.442,3.256,2.442,1.628,0,1.628.55,1.628.814,0,.338-.5.814-1.628.814-1.5,0-1.619-.7-1.628-.814H12A2.561,2.561,0,0,0,14.442,17.9v.879H16.07v-.883a2.588,2.588,0,0,0,2.442-2.373C18.512,14.608,18.089,13.078,15.256,13.078Z" transform="translate(-7.116 -5.752)"/>
</svg>
