<svg xmlns="http://www.w3.org/2000/svg" width="18" height="18" viewBox="0 0 18 18">
  <defs>
    <style>
      .cls-1 {
        fill: none;
      }

      .cls-2 {
        fill: #bc0202;
      }
    </style>
  </defs>
  <g id="__TEMP__SVG__" transform="translate(-3 -3)">
    <path id="패스_3908" data-name="패스 3908" class="cls-1" d="M13.2,6a7.2,7.2,0,1,0,7.2,7.2A7.208,7.208,0,0,0,13.2,6Zm.9,11.623V18.6H12.3v-.972A2.832,2.832,0,0,1,9.6,15h1.8c.01.128.143.9,1.8.9,1.242,0,1.8-.526,1.8-.9,0-.292,0-.9-1.8-.9-3.132,0-3.6-1.692-3.6-2.7a2.862,2.862,0,0,1,2.7-2.624V7.811h1.8v1A2.7,2.7,0,0,1,16.26,11.4h-.9l-.9.016c-.013-.342-.194-.916-1.26-.916-1.169,0-1.8.464-1.8.9,0,.337,0,.9,1.8.9,3.132,0,3.6,1.692,3.6,2.7a2.862,2.862,0,0,1-2.7,2.624Z" transform="translate(-1.2 -1.2)"/>
    <path id="패스_3909" data-name="패스 3909" class="cls-2" d="M12,3a9,9,0,1,0,9,9A9.01,9.01,0,0,0,12,3Zm0,16.2A7.2,7.2,0,1,1,19.2,12,7.208,7.208,0,0,1,12,19.2Z"/>
    <path id="패스_3910" data-name="패스 3910" class="cls-2" d="M15.6,13.507c-1.8,0-1.8-.563-1.8-.9,0-.436.631-.9,1.8-.9,1.067,0,1.247.574,1.26.916l.9-.016h.9a2.7,2.7,0,0,0-2.16-2.591v-1H14.7v.965A2.862,2.862,0,0,0,12,12.607c0,1.008.468,2.7,3.6,2.7,1.8,0,1.8.608,1.8.9,0,.373-.558.9-1.8.9-1.657,0-1.79-.771-1.8-.9H12a2.832,2.832,0,0,0,2.7,2.628v.972h1.8v-.976a2.862,2.862,0,0,0,2.7-2.624C19.2,15.2,18.732,13.507,15.6,13.507Z" transform="translate(-3.6 -2.407)"/>
  </g>
</svg>
