<svg xmlns="http://www.w3.org/2000/svg" width="16.178" height="22.356" viewBox="0 0 16.178 22.356">
  <defs>
    <style>
      .cls-1 {
        fill: #6e6e6e;
      }
    </style>
  </defs>
  <g id="map-marker-solid" transform="translate(-6.22 -2)">
    <path id="패스_4728" data-name="패스 4728" class="cls-1" d="M14.306,2A8.093,8.093,0,0,0,6.22,10.051c0,3.205,1.8,5.889,3.116,7.846l.24.357a68.373,68.373,0,0,0,4.214,5.491l.522.611.522-.611a68.518,68.518,0,0,0,4.214-5.491l.24-.364C20.6,15.934,22.4,13.257,22.4,10.051A8.093,8.093,0,0,0,14.306,2Zm0,11.669a4.5,4.5,0,1,1,4.5-4.5A4.5,4.5,0,0,1,14.306,13.669Z"/>
    <path id="패스_4729" data-name="패스 4729" class="cls-1" d="M19.391,11.27a2.56,2.56,0,1,1-2.56-2.56,2.56,2.56,0,0,1,2.56,2.56Z" transform="translate(-2.524 -2.104)"/>
  </g>
</svg>
