<svg xmlns="http://www.w3.org/2000/svg" width="21.111" height="19" viewBox="0 0 21.111 19">
    <path data-name="패스 73" d="M10.556 5.278v5.278h5.278V8.445h-3.167V5.278z"/>
    <path data-name="패스 74" d="M20.364 5.8A9.509 9.509 0 0 0 13.526.191a9.6 9.6 0 0 0-3.827 0A9.493 9.493 0 0 0 2.111 9.5v.027H0l3.167 4.2 3.167-4.2h-2.11V9.5a7.343 7.343 0 0 1 1.259-4.13 7.39 7.39 0 0 1 13.368 2.638 7.512 7.512 0 0 1 0 2.981 7.4 7.4 0 0 1-2.014 3.736 7.45 7.45 0 0 1-2.349 1.585 7.368 7.368 0 0 1-1.386.431 7.512 7.512 0 0 1-2.979 0 7.343 7.343 0 0 1-2.64-1.111 7.459 7.459 0 0 1-1.094-.9l-1.494 1.49A9.5 9.5 0 0 0 20.364 5.8z"/>
</svg>
