<svg xmlns="http://www.w3.org/2000/svg" width="20.883" height="19.167" viewBox="0 0 20.883 19.167">
  <defs>
    <style>
      .cls-1 {
        fill: #fa4545;
      }
    </style>
  </defs>
  <g id="그룹_2561" data-name="그룹 2561" transform="translate(-3274.042 -2803.028)">
    <path id="패스_4239" data-name="패스 4239" d="M356.745,782.4a4.12,4.12,0,0,1-3.421-1.909l-.174-.3,2.361-8.528h16.068l2.453,7.877-.023.178a2.724,2.724,0,0,1-2.978,2.47h0a10.076,10.076,0,0,1-3.682-.928,5.4,5.4,0,0,1-3.219,1.054,7.5,7.5,0,0,1-3.888-1.23A6.082,6.082,0,0,1,356.745,782.4Zm-1.83-2.485a2.423,2.423,0,0,0,1.83.858,4.982,4.982,0,0,0,2.967-1.327l.512-.414.51.415a6.174,6.174,0,0,0,3.4,1.242,3.884,3.884,0,0,0,2.579-.994l.413-.354.486.246a9.4,9.4,0,0,0,3.422.975c.925,0,1.228-.35,1.338-.892l-1.986-6.378H356.749Z" transform="translate(2920.892 2031.358)"/>
    <rect id="사각형_511" data-name="사각형 511" width="7.644" height="1.084" transform="translate(3280.574 2811.384) rotate(-83.831)"/>
    <rect id="사각형_512" data-name="사각형 512" width="1.085" height="7.89" transform="matrix(0.993, -0.119, 0.119, 0.993, 3286.657, 2803.906)"/>
    <path id="패스_4240" data-name="패스 4240" d="M372.42,792.953H356.031V783.68h1.627v7.646h13.136v-7.62h1.627Z" transform="translate(2920.384 2029.242)"/>
    <rect id="사각형_513" data-name="사각형 513" class="cls-1" width="9.473" height="3.318" rx="1.659" transform="translate(3279.89 2816.201)"/>
  </g>
</svg>
