<svg xmlns="http://www.w3.org/2000/svg" width="13.5" height="15" viewBox="0 0 13.5 15">
    <path data-name="패스 26" d="m12.482 19.283 2.511 2.466 2.512-2.467a1.6 1.6 0 0 0 0-2.3 1.669 1.669 0 0 0-2.344 0l-.168.164-.168-.164a1.668 1.668 0 0 0-2.344 0 1.6 1.6 0 0 0 0 2.3z" transform="translate(-8.246 -9.75)" style="fill:#ff6565"/>
    <path data-name="패스 27" d="M16.5 4.5H15V3h-1.5v1.5H9V3H7.5v1.5H6A1.5 1.5 0 0 0 4.5 6v10.5A1.5 1.5 0 0 0 6 18h10.5a1.5 1.5 0 0 0 1.5-1.5V6a1.5 1.5 0 0 0-1.5-1.5zm0 12H6v-9h10.5z" style="fill:#ff6565" transform="translate(-4.5 -3)"/>
</svg>
