<svg xmlns="http://www.w3.org/2000/svg" width="17" height="17.001" viewBox="0 0 17 17.001">
  <defs>
    <style>
      .cls-1 {
        fill: #ff6464;
      }
    </style>
  </defs>
  <path id="bx-phone" class="cls-1" d="M17.652,12.206a.893.893,0,0,0-1.265,0l-1.426,1.426a6.7,6.7,0,0,1-2.676-1.426A6.7,6.7,0,0,1,10.86,9.53L12.286,8.1a.893.893,0,0,0,0-1.265L8.708,3.261a.893.893,0,0,0-1.265,0L5.017,5.688a1.787,1.787,0,0,0-.524,1.283,13.69,13.69,0,0,0,3.844,9.184A13.694,13.694,0,0,0,17.523,20h.025a1.767,1.767,0,0,0,1.256-.524L21.23,17.05a.893.893,0,0,0,0-1.265Zm-.114,6A11.842,11.842,0,0,1,9.6,14.89a11.844,11.844,0,0,1-3.32-7.938L8.075,5.159l2.313,2.313L9.231,8.628a.894.894,0,0,0-.243.816,9.082,9.082,0,0,0,2.031,4.027A9.082,9.082,0,0,0,15.046,15.5a.886.886,0,0,0,.816-.243L17.02,14.1l2.313,2.313L17.538,18.21Z" transform="translate(-4.493 -2.999)"/>
</svg>
