<svg xmlns="http://www.w3.org/2000/svg" width="20.752" height="17.045" viewBox="0 0 20.752 17.045">
  <defs>
    <style>
      .cls-1 {
        fill: #ff3e3e;
      }

      .cls-2 {
        fill: #2b2b2b;
      }
    </style>
  </defs>
  <g id="그룹_2766" data-name="그룹 2766" transform="translate(-551.026 -1512.234)">
    <g id="그룹_702" data-name="그룹 702" transform="translate(554.111 1516.114)">
      <path id="패스_949" data-name="패스 949" class="cls-1" d="M589.253,382.648a2.466,2.466,0,0,1,2.089,1.375l1.28,2.218c.206.358.39.435.418.435s.133-.065.263-.289a2.307,2.307,0,0,1,1.969-1.275h0a2.524,2.524,0,0,1,2.125,1.42l1.03,1.784a2.274,2.274,0,0,1-2.088,3.618h-9.564a2.274,2.274,0,0,1-2.089-3.618l2.478-4.292A2.466,2.466,0,0,1,589.253,382.648Zm3.787,6a2.524,2.524,0,0,1-2.124-1.42l-1.28-2.217c-.17-.295-.331-.39-.383-.39s-.212.1-.382.39l-2.478,4.292c-.17.295-.172.482-.146.527s.189.136.529.136h9.564c.34,0,.5-.092.529-.136s.023-.232-.147-.526l-1.03-1.784c-.207-.358-.391-.435-.418-.435s-.133.064-.263.289A2.307,2.307,0,0,1,593.04,388.646Z" transform="translate(-584.265 -382.648)"/>
    </g>
    <path id="사각형_165" data-name="사각형 165" class="cls-2" d="M1.956-1.5H15.8a3.46,3.46,0,0,1,3.456,3.456V12.089A3.46,3.46,0,0,1,15.8,15.545H1.956A3.46,3.46,0,0,1-1.5,12.089V1.956A3.46,3.46,0,0,1,1.956-1.5ZM15.8,13.575a1.488,1.488,0,0,0,1.486-1.486V1.956A1.488,1.488,0,0,0,15.8.47H1.956A1.488,1.488,0,0,0,.47,1.956V12.089a1.488,1.488,0,0,0,1.486,1.486Z" transform="translate(552.526 1513.734)"/>
  </g>
</svg>
