<svg xmlns="http://www.w3.org/2000/svg" width="18" height="18" viewBox="0 0 18 18">
  <g id="icon-won" transform="translate(-3 -3)">
    <path id="패스_3908" data-name="패스 3908" d="M13.2,6a7.2,7.2,0,1,0,7.2,7.2A7.208,7.208,0,0,0,13.2,6Zm.9,11.623V18.6H12.3v-.972A2.832,2.832,0,0,1,9.6,15h1.8c.01.128.143.9,1.8.9,1.242,0,1.8-.526,1.8-.9,0-.292,0-.9-1.8-.9-3.132,0-3.6-1.692-3.6-2.7a2.862,2.862,0,0,1,2.7-2.624V7.811h1.8v1A2.7,2.7,0,0,1,16.26,11.4h-.9l-.9.016c-.013-.342-.194-.916-1.26-.916-1.169,0-1.8.464-1.8.9,0,.337,0,.9,1.8.9,3.132,0,3.6,1.692,3.6,2.7a2.862,2.862,0,0,1-2.7,2.624Z" transform="translate(-1.2 -1.2)" fill="none"/>
    <path id="패스_3909" data-name="패스 3909" d="M12,3a9,9,0,1,0,9,9A9.01,9.01,0,0,0,12,3Zm0,16.2A7.2,7.2,0,1,1,19.2,12,7.208,7.208,0,0,1,12,19.2Z"/>
    <path id="bx-won" d="M13,7.5H11.951l-.427,1.519H9.047L8.591,7.5H7.534L7.079,9.019H4.6L4.175,7.5H3.123L3.55,9.019H3v1.013h.834l.285,1.013H3v1.013H4.4l.855,3.038H6.313l.911-3.038H8.9l.911,3.038h1.055l.855-3.038h1.4V11.044H12.006l.285-1.013h.834V9.019h-.55ZM4.887,10.031H6.775l-.3,1.013h-1.3l-.285-1.013ZM5.8,13.28l-.344-1.223h.711Zm1.728-2.236.3-1.013h.462l.3,1.013Zm2.8,2.236-.367-1.223h.711Zm.628-2.236h-1.3l-.3-1.013h1.888Z" transform="translate(4 1.5)"/>
  </g>
</svg>
