<svg xmlns="http://www.w3.org/2000/svg" width="29.162" height="29.162" viewBox="0 0 29.162 29.162">
    <g data-name="그룹 1272">
        <path d="M17.956 3.375a14.581 14.581 0 1 0 14.581 14.581A14.6 14.6 0 0 0 17.956 3.375zM23.192 21.1a35.7 35.7 0 0 1-5.236 4.453A35.51 35.51 0 0 1 12.72 21.1a8.122 8.122 0 0 1-2.054-5.363 3.954 3.954 0 0 1 3.892-3.949 4.269 4.269 0 0 1 3.238 1.6l.16.192.16-.192a4.219 4.219 0 0 1 3.237-1.593 3.953 3.953 0 0 1 3.892 3.949 8.124 8.124 0 0 1-2.054 5.356z" transform="translate(-3.375 -3.375)" style="fill:#fff"/>
        <path data-name="패스 89" d="M31.219 17.86a13.36 13.36 0 1 0-13.36 13.36 13.363 13.363 0 0 0 13.36-13.36z" transform="translate(-3.279 -3.279)" style="fill:none;stroke:#a7a7a7;stroke-miterlimit:10;stroke-width:2.25px"/>
        <path data-name="패스 90" d="M17.924 25.173a1.113 1.113 0 0 1-.626-.193 20.4 20.4 0 0 1-4.572-3.925 8.061 8.061 0 0 1-2.039-5.323 3.925 3.925 0 0 1 3.863-3.92 4.166 4.166 0 0 1 3.069 1.42.418.418 0 0 0 .607 0 4.166 4.166 0 0 1 3.069-1.42 3.924 3.924 0 0 1 3.863 3.92 8.068 8.068 0 0 1-2.039 5.323 20.32 20.32 0 0 1-4.572 3.925 1.113 1.113 0 0 1-.623.193z" transform="translate(-3.343 -3.355)" style="fill:#a7a7a7"/>
    </g>
</svg>
