<svg xmlns="http://www.w3.org/2000/svg" width="13.527" height="13.529" viewBox="0 0 13.527 13.529">
  <defs>
    <style>
      .cls-1 {
        fill: #c7c7c7;
      }
    </style>
  </defs>
  <path id="__TEMP__SVG__" class="cls-1" d="M16.491,7.853A.677.677,0,0,0,15.9,7.4L12.049,7.09,10.38,3.4a.675.675,0,0,0-1.232,0L7.479,7.09,3.623,7.4A.676.676,0,0,0,3.2,8.555l2.849,2.778L5.046,15.7a.676.676,0,0,0,1.035.715l3.683-2.455,3.683,2.455a.677.677,0,0,0,1.026-.748l-1.237-4.329L16.3,8.574a.677.677,0,0,0,.188-.72Z" transform="translate(-3 -2.996)"/>
</svg>
