<svg xmlns="http://www.w3.org/2000/svg" width="102.631" height="35.346" viewBox="0 0 102.631 35.346">
    <text data-name="GIMCHI" transform="translate(32.63 25.758)" style="font-size:19px;font-family:TmonMonsoriBlack,TmonMonsori;letter-spacing:-.03em;fill:#df0c07"><tspan x="0" y="0">GIMCHI</tspan></text>
    <g data-name="벡터 고급 개체">
        <path data-name="패스 1" d="m301.853 136.361-.516-.635a.179.179 0 0 0-.255-.023l-6.287 5.272a8.172 8.172 0 0 0-1.091-.724l6.418-7.165a.177.177 0 0 0-.014-.251l-.612-.544a.179.179 0 0 0-.255.018l-6.255 7.58c-2.446-1.114-5.792-1.518-9.674-1.407-8.177.235-10.724 4.852-11.519 6.85s-.37 3.477.383 5.56-.55 4.289-.592 6.351-.27 5.723 3.2 8.558c3.416 2.79 7.844 1.916 14.538.125 6.946-1.858 9.2-3.436 9.288-6.559s-3.161-3.921-2.531-7.871c.565-3.54 2.029-6.621-.167-9.412a6.426 6.426 0 0 0-.486-.547l6.4-4.926a.177.177 0 0 0 .027-.25" transform="translate(-271.366 -132.246)" style="fill:#df0c07"/>
        <path data-name="합치기 5" d="M-624.868-1165.381c-1.579-.232-.32-7.012.068-8.157a1.445 1.445 0 0 1 2.115-.76c.522.309.442.837.134 2.2a13.044 13.044 0 0 0-.255 1.556c.214-.064.375-.115.375-.115a4.465 4.465 0 0 1 1.071-.167 1.387 1.387 0 0 1 .335.039 21.344 21.344 0 0 1 .655-2.792 1.369 1.369 0 0 1 1.669-.876 1.21 1.21 0 0 1 .469.182.642.642 0 0 1 .252.4 1.154 1.154 0 0 1 .025.168 5.37 5.37 0 0 1-.277 1.656 11.985 11.985 0 0 0-.241 4.954c.309 1.994-1.566 1.8-2.236 1.685-.762-.129-.816-1.788-.616-3.589a3.028 3.028 0 0 1-.736.129 5.755 5.755 0 0 1-.83-.026 12.749 12.749 0 0 0 .214 1.776c.276 1.512-.759 1.788-1.562 1.788a4.248 4.248 0 0 1-.629-.051zm-7.472-.85c-2.179-1.21-2.146-4.348-.791-6.33 1.453-2.123 4.439-2.071 5.6-1.66s.936 1.672.161 2.342a1.872 1.872 0 0 1-1.888.334 1.709 1.709 0 0 0-1.695 1.608c-.226 1.3 1.226 2.1 1.711 1.814a2.225 2.225 0 0 1 1.342-.414 1.067 1.067 0 0 1 .519.182 1.019 1.019 0 0 1 .153.123 1.488 1.488 0 0 1 .051 2.257 3.484 3.484 0 0 1-2.1.6 6.369 6.369 0 0 1-3.063-.857zm15.671.413c-1.793-.473.479-7.438 1.066-8.592a1.73 1.73 0 0 1 2.525-.5c.565.4.417.955-.114 2.359l.013.016a11.6 11.6 0 0 0-.744 5.2 1.384 1.384 0 0 1-1.557 1.689 4.823 4.823 0 0 1-1.189-.173zm-14.8-10a3.243 3.243 0 0 1-.332-.139l-.167-.082-.153-.083a2.226 2.226 0 0 1-.3-.193 3.63 3.63 0 0 1-.277-.207 5.23 5.23 0 0 1-.484-.482 4.323 4.323 0 0 1-.388-.51 5.155 5.155 0 0 1-.818-2.233 5.188 5.188 0 0 1 .222-2.262 5.331 5.331 0 0 1 .484-1.021 5.07 5.07 0 0 1 .652-.841 5.051 5.051 0 0 1 1.579-1.1c.069-.027.139-.055.221-.083l.25-.083.124-.041.125-.041a2.338 2.338 0 0 1 .276-.056 4.187 4.187 0 0 1 1.012-.027 4.107 4.107 0 0 1 1.7.524 2.537 2.537 0 0 1 .582.469 1.22 1.22 0 0 1 .291.509.679.679 0 0 1-.028.442.761.761 0 0 1-.249.3.712.712 0 0 1-.346.124h-.18a1.215 1.215 0 0 1-.221-.014c-.167-.013-.388-.041-.665-.055a4.212 4.212 0 0 0-.914.055 3.182 3.182 0 0 0-.388.1 2.883 2.883 0 0 0-.416.206 2.662 2.662 0 0 0-.706.593 2.348 2.348 0 0 0-.457.744 2.654 2.654 0 0 0-.153.759 3.342 3.342 0 0 0 .305 1.516 2.371 2.371 0 0 0 .337.519l.052.057.041.045a1.559 1.559 0 0 0 .369.285l.083.041c.028.014.055.014.083.028l.023.006h.03a1.732 1.732 0 0 0 .238.054c.038.005.075.007.112.009a.721.721 0 0 0 .386-.05l.083-.041a.375.375 0 0 0 .069-.041.81.81 0 0 0 .236-.3 1.722 1.722 0 0 0 .138-.427 3.456 3.456 0 0 1 .167-.648l-.36.1a6.974 6.974 0 0 1-1.011.179.84.84 0 0 1-.942-.579.841.841 0 0 1 .373-1.034 2.408 2.408 0 0 1 1.192-.318 5.37 5.37 0 0 1 1.925.331 1.947 1.947 0 0 1 .346.179.773.773 0 0 1 .194.183 2.24 2.24 0 0 1 .433.962 3.468 3.468 0 0 1-.034 1.152 3.211 3.211 0 0 1-.192.764 4.125 4.125 0 0 1-.248.5 2.385 2.385 0 0 1-.374.482 3.174 3.174 0 0 1-1.15.759 3.959 3.959 0 0 1-1.385.247 4.1 4.1 0 0 1-1.391-.236zm6.484-.142c-1.4-.185-.506-7.021-.2-8.185a1.218 1.218 0 0 1 1.835-.833c.47.291.423.833.188 2.221l.012.013a13.6 13.6 0 0 0 .047 4.972c.3 1.583-.709 1.843-1.429 1.843a3.478 3.478 0 0 1-.45-.035zm3.721-.382c-1.288-.056-1.015-6.207-.827-7.262a1.121 1.121 0 0 1 1.612-.876.76.76 0 0 1 .078.048h.005l.013.011a7.8 7.8 0 0 1 .7.658l.033.035c.186.175.349.338.447.44l.636.668c.105.127.31.347.518.6.112-.216.232-.434.347-.616a9.688 9.688 0 0 1 .973-1.286.474.474 0 0 1 .019-.028c.225-.3.571-.828.734-.978a1.174 1.174 0 0 1 1.3-.2l.024.021c.455.22.446.695.346 1.914a11.524 11.524 0 0 0 .436 4.326c.5 1.692-1.022 1.75-1.57 1.72-.808-.04-1-2.45-.978-4.486a4.677 4.677 0 0 1-.863 1.345.171.171 0 0 1-.013.014.845.845 0 0 1-.546.276c-.555.053-1.264-.752-1.713-1.4a9.61 9.61 0 0 1-.592-.97 11.75 11.75 0 0 0 .449 4.265c.456 1.565-.75 1.76-1.387 1.76a2.414 2.414 0 0 1-.178-.004z" transform="translate(636.563 1196.359)" style="fill:#fff;stroke:transparent;stroke-miterlimit:10"/>
    </g>
</svg>
